<?xml version="1.0" encoding="UTF-8" standalone="no"?>
<svg width="132px" height="144px" viewBox="0 0 132 144" version="1.1" xmlns="http://www.w3.org/2000/svg" xmlns:xlink="http://www.w3.org/1999/xlink">
    <!-- Generator: Sketch 49.3 (51167) - http://www.bohemiancoding.com/sketch -->
    <title>Group</title>
    <desc>Created with Sketch.</desc>
    <defs></defs>
    <g id="Page-1" stroke="none" stroke-width="1" fill="none" fill-rule="evenodd">
        <g id="Group" transform="translate(-10.000000, -4.000000)">
            <path d="M90,8.08290377 L127.817931,29.9170962 C136.481161,34.9188145 141.817931,44.162371 141.817931,54.1658075 L141.817931,97.8341925 C141.817931,107.837629 136.481161,117.081186 127.817931,122.082904 L90,143.917096 C81.3367699,148.918814 70.6632301,148.918814 62,143.917096 L24.1820693,122.082904 C15.5188392,117.081186 10.1820693,107.837629 10.1820693,97.8341925 L10.1820693,54.1658075 C10.1820693,44.162371 15.5188392,34.9188145 24.1820693,29.9170962 L62,8.08290377 C70.6632301,3.08118551 81.3367699,3.08118551 90,8.08290377 Z" id="Polygon-2" fill="#000000"></path>
            <path d="M93.7356322,61.9880724 C94.4790477,62.2797667 95.005407,63.0037018 95.005407,63.8505747 C95.005407,67.0595409 95.005407,70.2685071 95.005407,73.4774734 C95.005407,77.9325816 84.9351527,78.3415176 82.1848684,80.7478969 C79.4345841,83.1542762 82.9664776,100.665645 82.9664776,105.733483 C82.9664776,110.80132 80.8096044,115 76.0027035,115 C71.1958026,115 69.0389294,110.80132 69.0389294,105.733483 C69.0389294,100.665645 72.5708229,83.1542762 69.8205385,80.7478969 C67.0702542,78.3415176 57,77.9325816 57,73.4774734 C57,70.2685071 57,67.0595409 57,63.8505747 C57,62.8960304 57.6687102,62.0976718 58.5632184,61.898411 L58.5632184,50 C58.5632184,48.3431458 59.9063641,47 61.5632184,47 L90.7356322,47 C92.3924864,47 93.7356322,48.3431458 93.7356322,50 L93.7356322,61.9880724 Z" id="Combined-Shape" fill="#FFFFFF"></path>
        </g>
    </g>
</svg>